Coordinates
version=1
nRows=32
nColumns=22
inDegrees=yes

Units are S.I. units (second, meters, Newtons, ...)
If the header above contains a line with 'inDegrees', this indicates whether rotational values are in degrees (yes) or radians (no).

endheader
time	pelvis_tilt	pelvis_list	pelvis_rotation	pelvis_tx	pelvis_ty	pelvis_tz	hip_flexion_r	hip_adduction_r	hip_rotation_r	knee_angle_r	ankle_angle_r	subtalar_angle_r	hip_flexion_l	hip_adduction_l	hip_rotation_l	knee_angle_l	ankle_angle_l	subtalar_angle_l	lumbar_extension	lumbar_bending	lumbar_rotation
      3.61000000	     -3.81281930	      7.51369504	    155.14844377	      0.56680862	      0.90088682	     -0.53057027	    -22.12879541	      3.37871824	    -13.99776919	    -19.17780014	     12.50776884	      9.14486702	     21.95774787	     -0.81443941	    -24.16478450	    -21.57468766	     13.20902252	    -22.43846801	    -13.69371722	      2.80850341	     -3.66022649
      3.62000000	     -4.02949467	      6.91157062	    155.62847839	      0.55439657	      0.90210712	     -0.53430316	    -21.95263282	      2.54775183	    -13.71045357	    -20.75078121	     10.71541470	      9.71308769	     21.50696219	     -0.01364120	    -24.10414947	    -22.12189497	     12.80313140	    -23.45824302	    -13.24954787	      2.21649557	     -3.94162456
      3.63000000	     -4.20630528	      6.38120850	    156.14942642	      0.54192848	      0.90357827	     -0.53784706	    -21.65479402	      1.79568692	    -13.31106559	    -22.45103903	      8.51248861	     10.32479184	     21.06694394	      0.74202522	    -23.81614253	    -22.68670207	     12.50783416	    -24.19249717	    -12.80677781	      1.72535864	     -4.19625230
      3.64000000	     -4.34059233	      5.95416349	    156.69540433	      0.52948968	      0.90524433	     -0.54123536	    -21.22660799	      1.15210155	    -12.76868840	    -24.28453700	      5.91235224	     10.99605869	     20.62882899	      1.40920268	    -23.31186700	    -23.26669957	     12.38678597	    -24.73701570	    -12.38351976	      1.36335524	     -4.39855827
      3.65000000	     -4.43554977	      5.63290028	    157.25583445	      0.51713415	      0.90703155	     -0.54448482	    -20.65898007	      0.61859143	    -12.07979019	    -26.25094827	      2.98215651	     11.72749546	     20.18838451	      1.97181407	    -22.66217421	    -23.85976527	     12.42689065	    -25.18095704	    -11.98805497	      1.12922785	     -4.56241539
      3.66000000	     -4.48511891	      5.43485309	    157.83597951	      0.50494603	      0.90888271	     -0.54758730	    -19.94779691	      0.23520850	    -11.21814633	    -28.33115173	     -0.17285383	     12.45729992	     19.73397626	      2.42204054	    -21.83514872	    -24.42303051	     12.65331939	    -25.55914161	    -11.63087759	      1.04456281	     -4.69975482
      3.67000000	     -4.50756211	      5.31414680	    158.40064956	      0.49300703	      0.91070857	     -0.55059060	    -19.05436052	     -0.07507766	    -10.27224231	    -30.59078312	     -3.31498749	     13.33512328	     19.26861070	      2.77589866	    -21.00883348	    -24.96605521	     13.00895864	    -25.95466131	    -11.31922168	      1.03840908	     -4.77733219
      3.68000000	     -4.50661162	      5.27699569	    158.96374825	      0.48136749	      0.91248765	     -0.55344979	    -18.00396288	     -0.27457590	     -9.21892567	    -32.97282031	     -6.27785295	     14.12083526	     18.76740418	      3.04581308	    -20.15375999	    -25.43301285	     13.45523783	    -26.27199074	    -11.06897458	      1.12812830	     -4.85593485
      3.69000000	     -4.50722056	      5.25256214	    159.49657107	      0.47005592	      0.91413917	     -0.55617470	    -16.76763013	     -0.48045966	     -8.20406493	    -35.53052531	     -8.83215597	     14.95432598	     18.22417340	      3.28763753	    -19.41481691	    -25.81469757	     13.97462274	    -26.55379400	    -10.88059445	      1.22469936	     -4.90945340
      3.70000000	     -4.53564618	      5.21478860	    160.00348984	      0.45908205	      0.91565767	     -0.55876011	    -15.38175641	     -0.72895202	     -7.28554986	    -38.21730717	    -10.84523349	     15.73557523	     17.61220721	      3.53790039	    -18.80478514	    -26.08716062	     14.55220907	    -26.75387248	    -10.77736381	      1.28810742	     -4.95372695
      3.71000000	     -4.58788618	      5.14976338	    160.48425085	      0.44842701	      0.91705734	     -0.56118068	    -13.85758354	     -1.02876774	     -6.46505356	    -40.96732773	    -12.24686063	     16.29780145	     16.91881932	      3.81893661	    -18.30517418	    -26.20592848	     15.09710385	    -26.84191052	    -10.74588174	      1.31538550	     -5.01811643
      3.72000000	     -4.69513216	      5.05468668	    160.95803221	      0.43804072	      0.91836144	     -0.56340449	    -12.24909925	     -1.41427623	     -5.82283862	    -43.72308313	    -12.98565029	     16.80186345	     16.12570665	      4.13998461	    -17.93256628	    -26.20575628	     15.70054523	    -26.86736111	    -10.81510002	      1.29769288	     -5.10324156
      3.73000000	     -4.86831058	      4.90900194	    161.41891167	      0.42786944	      0.91964760	     -0.56545105	    -10.59069541	     -1.90728947	     -5.31880614	    -46.40593379	    -13.14612629	     17.00767729	     15.20799799	      4.53082118	    -17.66918988	    -26.04605402	     16.21957286	    -26.76977075	    -10.97664622	      1.20920393	     -5.21873275
      3.74000000	     -5.03341160	      4.75315649	    161.90686637	      0.41790092	      0.92084562	     -0.56725132	     -8.85046160	     -2.41734931	     -4.91695864	    -48.94485788	    -12.77917655	     17.20418464	     14.26233910	      4.94327304	    -17.38089443	    -25.78640200	     16.71052892	    -26.65606303	    -11.15920056	      1.13388619	     -5.35690287
      3.75000000	     -5.23585644	      4.58562549	    162.43449920	      0.40804094	      0.92206493	     -0.56884720	     -7.11605042	     -2.96365145	     -4.62032373	    -51.26893600	    -12.07267822	     17.28564705	     13.23993027	      5.37915742	    -17.11297098	    -25.43975524	     17.18571153	    -26.48950815	    -11.39178802	      1.05056259	     -5.57514765
      3.76000000	     -5.43231429	      4.42561422	    163.02263496	      0.39828855	      0.92329679	     -0.57020158	     -5.37360757	     -3.49502312	     -4.39720671	    -53.33489506	    -11.12844092	     17.25230000	     12.18865295	      5.82055512	    -16.74832446	    -25.01406244	     17.58395516	    -26.28882545	    -11.62857909	      1.00068421	     -5.82857545
      3.77000000	     -5.59574969	      4.27985715	    163.68585932	      0.38862518	      0.92453583	     -0.57131903	     -3.61976285	     -3.98594557	     -4.23837159	    -55.11324789	    -10.07367827	     16.85305610	     11.14223096	      6.25032902	    -16.25005048	    -24.52586156	     17.88510376	    -26.04998914	    -11.83159241	      0.99941963	     -6.12978646
      3.78000000	     -5.75417256	      4.17868700	    164.44735362	      0.37903760	      0.92583315	     -0.57220306	     -1.92556136	     -4.39784355	     -4.13458877	    -56.56669352	     -8.91644946	     16.31059597	     10.07920994	      6.62939390	    -15.64184177	    -24.01944398	     18.17376685	    -25.77718215	    -12.03740326	      1.07045125	     -6.51278086
      3.79000000	     -5.87825599	      4.12090831	    165.30962594	      0.36951945	      0.92714938	     -0.57286990	     -0.26976759	     -4.71561448	     -4.07732446	    -57.69138577	     -7.70739320	     15.54503586	      9.03349942	      6.94621478	    -14.90928960	    -23.49974203	     18.43199053	    -25.48455526	    -12.20418689	      1.22000535	     -6.96519852
      3.80000000	     -5.97410180	      4.09531046	    166.27285487	      0.36012013	      0.92847197	     -0.57330882	      1.34388422	     -4.95204031	     -4.05768126	    -58.49517878	     -6.46990306	     14.73192054	      8.01199964	      7.21465474	    -14.01639854	    -22.97636338	     18.59877585	    -25.18376280	    -12.34344678	      1.42952441	     -7.45869536
      3.81000000	     -6.06271424	      4.10650141	    167.30734579	      0.35075433	      0.92979924	     -0.57361265	      2.87782840	     -5.11635701	     -4.06792349	    -58.97194776	     -5.18485887	     13.65596009	      6.97690107	      7.41276365	    -13.08004091	    -22.44146728	     18.83872507	    -24.86552037	    -12.45846831	      1.69048933	     -7.99183087
      3.82000000	     -6.15013552	      4.12818859	    168.41344991	      0.34146041	      0.93111456	     -0.57375816	      4.33503958	     -5.23730742	     -4.09629822	    -59.13750589	     -3.89246359	     12.61249061	      5.92948537	      7.57810936	    -12.03986813	    -21.88397107	     18.99787434	    -24.54571155	    -12.55886261	      1.96931320	     -8.54396880
      3.83000000	     -6.25300091	      4.14586782	    169.56321459	      0.33221652	      0.93240193	     -0.57380700	      5.70085576	     -5.33644780	     -4.12020735	    -59.00689460	     -2.63213659	     11.56346090	      4.84836037	      7.72009369	    -10.94166428	    -21.29684385	     19.13427699	    -24.21754982	    -12.65824386	      2.23858605	     -9.10050009
      3.84000000	     -6.36905807	      4.15720886	    170.73012204	      0.32297909	      0.93364495	     -0.57380873	      6.97054179	     -5.41945564	     -4.13192594	    -58.58682862	     -1.43262017	     10.47315899	      3.72634029	      7.83261469	     -9.83437625	    -20.66804180	     19.24883969	    -23.88485731	    -12.74966039	      2.49247750	     -9.63597770
      3.85000000	     -6.50305801	      4.15070679	    171.88871125	      0.31376953	      0.93481373	     -0.57380652	      8.14973491	     -5.49571926	     -4.10649927	    -57.90559658	     -0.34462291	      9.38219357	      2.56504769	      7.92665595	     -8.72653365	    -20.00424551	     19.34780822	    -23.54739462	    -12.84550196	      2.71031397	    -10.12738198
      3.86000000	     -6.64762353	      4.12604460	    173.01571274	      0.30458079	      0.93588707	     -0.57383951	      9.24644632	     -5.56335386	     -4.03742243	    -56.97764710	      0.61573047	      8.34138970	      1.37362881	      7.99908708	     -7.64446934	    -19.30697085	     19.44016693	    -23.21275732	    -12.94317449	      2.89081200	    -10.56039809
      3.87000000	     -6.79998997	      4.08552192	    174.11178346	      0.29541002	      0.93685860	     -0.57390338	     10.25935117	     -5.62349459	     -3.94573761	    -55.81052378	      1.42348148	      7.47941501	      0.15630056	      8.04966184	     -6.57784762	    -18.57541711	     19.48139978	    -22.89395902	    -13.04335930	      3.03849990	    -10.93854529
      3.88000000	     -6.93931995	      4.03081908	    175.15437071	      0.28626899	      0.93764398	     -0.57404406	     11.22160138	     -5.67684648	     -3.84598442	    -54.42979471	      2.18610267	      6.70237920	     -1.04186463	      8.07039474	     -5.58558279	    -17.85111806	     19.65158612	    -22.58627040	    -13.13244998	      3.15270311	    -11.23886082
      3.89000000	     -7.07256670	      3.96646357	    176.19121305	      0.27717432	      0.93829054	     -0.57417177	     12.10713615	     -5.72843575	     -3.79473432	    -52.82090343	      2.81876841	      6.29122225	     -2.22674551	      8.06605561	     -4.57637915	    -17.12854126	     19.75570267	    -22.30932895	    -13.22206081	      3.24912435	    -11.52347907
      3.90000000	     -7.14965814	      3.87979458	    177.22956539	      0.26814977	      0.93865043	     -0.57427794	     12.98484094	     -5.80834351	     -3.84487748	    -51.02373407	      3.43910773	      6.15107225	     -3.30257646	      8.04164423	     -3.58460357	    -16.48415546	     19.99570360	    -22.04331048	    -13.25518751	      3.31687688	    -11.80038662
      3.91000000	     -7.30349550	      3.80011192	    178.24372198	      0.25914928	      0.93903005	     -0.57440664	     13.67459837	     -5.85817691	     -3.93841508	    -48.97460376	      3.93608391	      6.02889171	     -4.46615010	      7.98262956	     -2.60165790	    -15.82371547	     20.15515665	    -21.79669951	    -13.39628978	      3.37721674	    -12.03325485
      3.92000000	     -7.40542203	      3.69769447	    179.27973560	      0.25019143	      0.93913896	     -0.57449106	     14.33630276	     -5.94008784	     -4.18228698	    -46.74478897	      4.39915565	      6.11195418	     -5.51084166	      7.90559143	     -1.62520711	    -15.27137642	     20.40448434	    -21.55613651	    -13.48430259	      3.40839443	    -12.27995861
